<mxfile host="65bd71144e">
    <diagram id="7-L3Bki3WL_zv8Pd-E_5" name="Project pipeline">
        <mxGraphModel dx="1259" dy="607" grid="1" gridSize="10" guides="1" tooltips="1" connect="1" arrows="1" fold="1" page="1" pageScale="1" pageWidth="850" pageHeight="1100" math="0" shadow="0">
            <root>
                <mxCell id="0"/>
                <mxCell id="1" parent="0"/>
                <mxCell id="44" value="AWS Cloud" style="sketch=0;outlineConnect=0;gradientColor=none;html=1;whiteSpace=wrap;fontSize=12;fontStyle=0;shape=mxgraph.aws4.group;grIcon=mxgraph.aws4.group_aws_cloud;strokeColor=#AAB7B8;fillColor=none;verticalAlign=top;align=left;spacingLeft=30;fontColor=#AAB7B8;dashed=0;" parent="1" vertex="1">
                    <mxGeometry x="95" y="100" width="660" height="370" as="geometry"/>
                </mxCell>
                <mxCell id="33" value="" style="edgeStyle=none;html=1;" parent="1" edge="1">
                    <mxGeometry relative="1" as="geometry">
                        <mxPoint x="265" y="185" as="sourcePoint"/>
                        <mxPoint x="375" y="185" as="targetPoint"/>
                    </mxGeometry>
                </mxCell>
                <mxCell id="34" value="" style="edgeStyle=none;html=1;" parent="1" edge="1">
                    <mxGeometry relative="1" as="geometry">
                        <mxPoint x="453" y="184.54252199413486" as="sourcePoint"/>
                        <mxPoint x="554" y="183.35777126099708" as="targetPoint"/>
                    </mxGeometry>
                </mxCell>
                <mxCell id="36" value="" style="edgeStyle=none;html=1;" parent="1" source="30" edge="1">
                    <mxGeometry relative="1" as="geometry">
                        <mxPoint x="453" y="339" as="targetPoint"/>
                    </mxGeometry>
                </mxCell>
                <mxCell id="30" value="" style="sketch=0;outlineConnect=0;fontColor=#232F3E;gradientColor=none;fillColor=#4D27AA;strokeColor=none;dashed=0;verticalLabelPosition=bottom;verticalAlign=top;align=center;html=1;fontSize=12;fontStyle=0;aspect=fixed;pointerEvents=1;shape=mxgraph.aws4.glue_crawlers;" parent="1" vertex="1">
                    <mxGeometry x="557" y="312" width="78" height="78" as="geometry"/>
                </mxCell>
                <mxCell id="37" value="" style="edgeStyle=none;html=1;entryX=0.998;entryY=0.557;entryDx=0;entryDy=0;entryPerimeter=0;" parent="1" edge="1" target="45">
                    <mxGeometry relative="1" as="geometry">
                        <mxPoint x="375" y="339" as="sourcePoint"/>
                        <mxPoint x="283" y="339" as="targetPoint"/>
                    </mxGeometry>
                </mxCell>
                <mxCell id="39" value="Amazon S3" style="sketch=0;outlineConnect=0;fontColor=#232F3E;gradientColor=none;strokeColor=#ffffff;fillColor=#232F3E;dashed=0;verticalLabelPosition=middle;verticalAlign=bottom;align=center;html=1;whiteSpace=wrap;fontSize=10;fontStyle=1;spacing=3;shape=mxgraph.aws4.productIcon;prIcon=mxgraph.aws4.s3;" parent="1" vertex="1">
                    <mxGeometry x="185" y="135" width="80" height="100" as="geometry"/>
                </mxCell>
                <mxCell id="43" value="" style="edgeStyle=none;html=1;" parent="1" source="40" target="30" edge="1">
                    <mxGeometry relative="1" as="geometry"/>
                </mxCell>
                <mxCell id="40" value="Amazon S3" style="sketch=0;outlineConnect=0;fontColor=#232F3E;gradientColor=none;strokeColor=#ffffff;fillColor=#232F3E;dashed=0;verticalLabelPosition=middle;verticalAlign=bottom;align=center;html=1;whiteSpace=wrap;fontSize=10;fontStyle=1;spacing=3;shape=mxgraph.aws4.productIcon;prIcon=mxgraph.aws4.s3;" parent="1" vertex="1">
                    <mxGeometry x="555" y="135" width="80" height="100" as="geometry"/>
                </mxCell>
                <mxCell id="41" value="AWS Glue" style="sketch=0;outlineConnect=0;fontColor=#232F3E;gradientColor=none;strokeColor=#ffffff;fillColor=#232F3E;dashed=0;verticalLabelPosition=middle;verticalAlign=bottom;align=center;html=1;whiteSpace=wrap;fontSize=10;fontStyle=1;spacing=3;shape=mxgraph.aws4.productIcon;prIcon=mxgraph.aws4.glue;" parent="1" vertex="1">
                    <mxGeometry x="373" y="135" width="80" height="100" as="geometry"/>
                </mxCell>
                <mxCell id="42" value="Amazon Athena" style="sketch=0;outlineConnect=0;fontColor=#232F3E;gradientColor=none;strokeColor=#ffffff;fillColor=#232F3E;dashed=0;verticalLabelPosition=middle;verticalAlign=bottom;align=center;html=1;whiteSpace=wrap;fontSize=10;fontStyle=1;spacing=3;shape=mxgraph.aws4.productIcon;prIcon=mxgraph.aws4.athena;" parent="1" vertex="1">
                    <mxGeometry x="373" y="280" width="80" height="110" as="geometry"/>
                </mxCell>
                <mxCell id="45" value="" style="shape=image;verticalLabelPosition=bottom;labelBackgroundColor=default;verticalAlign=top;aspect=fixed;imageAspect=0;image=data:image/png,iVBORw0KGgoAAAANSUhEUgAAAoAAAACFCAYAAADLn0m5AAAABGdBTUEAALGPC/xhBQAAACBjSFJNAAB6JgAAgIQAAPoAAACA6AAAdTAAAOpgAAA6mAAAF3CculE8AAAABmJLR0QAAAAAAAD5Q7t/AAAACXBIWXMAAC4jAAAuIwF4pT92AAAAB3RJTUUH4gsUEAgs2dSkawAAHo9JREFUeNrt3XmcHGWdx/FPz5GQmcnBkRCOUAEFBQOCChJwEbFEvEFFIVndFRnisTphXRF0t9DWBUUXEkQljK6iJuFcL1QkDSKKUaLIEQyHQJqE3CHnJJmz94/fM2YYu6equ2v6/L5fr34FZmqme5566qnf89Tz/J4EdW7ugkVXAJcN+dLX5s2Z9WlEREREalSDikBEREREAaCIiIiIKAAUEREREQWAIiIiIqIAUEREREQUAIqIiIiIAkARERERUQAoIiIiIgoARUREREQBoIiIiIjEoKnW/qC5CxYBJKIcO2/OrEyWLyfc70lEfMvMvDmzVJNEREREAWAuG+fPmAwcniXoWje5Y3k6hrdIABcDpwL9IcFiBjhu2JffPnfBomkRgshG4B7gm0CmmA98/pWdY4CXA+OG/a4E8Oziy9o3qKqKiIhI1QaAwFuB67J8jq8Dl8QUAJ4CvLvAn3+Ze0WxE/hWsQEgsD9wI3AUMDDsb+kAvqOqKiIiItUcADYDbVm+PraOz0MD0Aq05CgvERERkaoOAEthJ7AD6Itw7DhgnyH/vwfYHbHsumL8zBlVRxEREVEAWJgBIIk9Zs5EOPYTwIeGfO1W4Gpsjl+Yzbz4ka2IiIiIAsBScytyn3GvUHMXLFo77Evr582Z9ZCqhoiIiNQq5QGMmDJGRERERAGgiIiIiCgAFBEREREFgCIiIiKiAFBEREREFACKiIiIiAJAEREREVEAKCIiIiIxaFIRiIhIITw/OASYSe58qhlgaTqVfF6lJaIAUEREasNrgB8AzTm+3wucBygAFFEAWHF+DmzC9vRtAJapSEREIklg+6bn2jt9AO22JKIA0MlUUgHMmzPrfuD+Mn+MjKqiiIiIVGQAuHH+jBbgCApfPNIPTMvxvQM2zp8xg+IWpqye3LH8hVIX4vlXdh4ETCkwkMsABwJjc3z/kPOv7DymiGC9B3h68WXtvaruIiIikncACBwN3Aa0Fvh+GWBcju+dA7ypiL8lA1wMLCpDObYDHS7ALUQDMCnH9zqAiyjsMUoDsBJ4B7BW1V1EREQKCQCbgAOAtlH4LONGCA6jBoD7lKkc24D9Rul3j3evQm1H6X5ERERkCAUGIiIiInVGq4BFREbg+cFY4ASghezzfBPYFIsV6VRSBSYiNRsADrhXoRJkn8+WobjVsMX+vIhINpOBbwNHkX2ebxOWC+/DaoNEpFYDwKexBQ+Fjhz2Az5wYZbv3QV8j+IeS/+hTOX4C+AFCl8FPBFb6HFAlu//CPg9ufNshQXbW7B5gCJSeKd1DJbsOFfC42YVk4jUbAA4uWP5JuCWYt5w4/wZbTkCwCcmdyy/qRoLcfFl7fcC9xb68+df2Xkw8N4cAeBdiy9rv15VNR6eH5wFvJrso9gJYDPww3Qq2aXSkiGdNBGR+g0AY+xNi8qkXM7BRltzeQr4MaAAUEREapZWAYuIiIgoABQRERERBYAiIiIiUjPqNg/guktmHAtcwD+urk0AO4Drpl61fI2qiIiIiCgArB2HAx8ne/qGjcBiQAGgiGiRlojUHD0CFhEZWa97iYgoABQRqRN9CgBFRAGgiIiIiCgAFBEREREFgCIiIiKiAFBEREREKkGTiqC2zG6f3wC0ZQnudy/s7OhWCYmIiEikAHDugkUJYH9gLJABBoDN8+bM0sq4ynMA8G1gujtPYHnMrgZuVPGIiIhI1BHAFuBa4EQXVGzBdtH4q4qw4owBjgZeOuzrU1Q0IiIikk8A2AB4Q4KKzcA+Kr5YxbXbQEZFKXHz/KABGOeu+8F2YwDoAXYBvelUcvjPNAMvdx3ITI46vxV4Kp1KDtRouYHtNjQOe4LS4MqiD9gN7Emnkrpmq+d8Jtx5bHbXQT+WI7K7VutwHvV8jKvnY9g7BWloPR/I8nOTsV25ct0TM8CT6VRyq2pf+QLAOAOLB4DPZAkwl9XxedgGfBXYb1g5J4A/qJpKmQK+A4FXAq/GRpUPcXV0nyGN+3ZgHfCk5wd/Bv4EPJdOJfuAScANwCvYOx1hePtzFzAL2FPlRZYZEiDs6zrLxwIz3A1uiiuPRnfsLteRfs7zg0dduf0V2KKAsKKug2ZgmjuXxwJHunPZ5oKdHmAnsNnzg5XAo8AjwNPpVHJ3jZfNOFfPXwUcD7zElc0EV89xwd9mYJWr58tcGW1xHcY3A9eN8DZ9rn24q8x/6/7A1BEOGXDtXlcMHYzDXP3KZTeQTqeS/RF/5yTgJPYO4D0JPJBOJbeXfBHI5I7lj7gLRJzFl7XvBDpVElIBjfoYF/C9H/CBI9yNLopeYDVwt+cHPwSecQ3Z+BF+ZkyO4LDajAfOdK/TXGM7gWiZFjLADuBx4A7PD24HHq/nEaUKuA72A94InAPMBA52dTVMP7aX/IPuPP4SWDt8dLzKy+ZA4C3Ae4HXYPPOGyP++A4XAN7u+cFNrkwnhgSAzRXwZ58LJMk9ENYFzAaWFvk+zcCVrh3JFuA1AA+69nlrhHN1MnAJ0A0sxwaVLgIu8vzgCq0CFpHBnuexwCeBs7FFX4U0XocDFwLvAe7BRgxH0u0a+Wr3JvdqLeBnEy5YPAmbZ30h8H3PDxakU8nVqp0lvQ5agLcD/+bOx9g8f0UjNlL0VncTfwT4pucHt6RTyR1VXjZtwLuBT2AjfoXED+OBU4CTgQ+4DmOG+KZAjZYWYPII3++K2EGI0hZMCml/94vSsfT84Djga8CtwP2uM74DWyR6HnCVAkAR3fT2cY3xZeSej5OvfV0QWC9aY/o9g4+APgec6flBACzRaGBJroMjgf9y9bYlhl/ZhD0e/cbguUynkk9Ucdl83gWAccz/b3BB5PGqeaNyvhpdoL4UWIhlAFnn2uVN2Kjg4UoELVLfDcVE7NHGvBiDv1qUKMP7nQR8H2h3c9Fk9K6D04CbXUeoJeZfPxZ4H7DY84NTq7BsTgEWYXPxtPizOhyKzb2+mb2Pkq8Cvug6JROBmxUAitTvTW88cAVw8Sjc9GpNuRZmTHEN9xzXq5f4r4OzgO8CJ4zyW50AdHp+MLOKyuZ1wP9ic/2keuznAr9VrjM5HpgLXA78FlgDPK8AUKQ+b3rNwKeAdrQjUJhebLVnuUzARmnP1amI/TqYieW4PaJEb3k0MM/zg5dUQdkc7crmZaopVWcPNh+1zXVee7FFZi+4zn4f0FLvDb/SLVRmwzMDyzuZGYXzPS3kmFbgjZ4fbCH+x35dwB/SqWQlbMn3Lmzkr7mAMtzt/pbBRqbVvWq1Pekj+4q8qA3xLvfCNb6t5L+4YF/gi54fPJ5OJR9SKxFLOzMNS791ZIHndTe2gr3Jndeo19JJQOD5wUfTqeSuCi2bwU7HCQVeL12uzve5uj6YNiehmlcSq7H0cqcAd2CL7e4EfgfMx54szKyqBnvdJTOasEmoxQYH/diKx1yPVFqAf1l3yYw1REvjkEsD8JepVy1fUgGBbTUFux8D5rheS9zC6vxB2OOguMurEcu/dAawvsyNuwd8FhtZimq9azzuBVZgE4r3uDo+CZs/eBJwOpb7biz1qQ94Dst3+oArq7XuhjjYwTgEm/x+BrbqN+p5eClwqecHHy4235iCv7+PgOczJ287lpf1HuBhdw30uOBmGpY+6UzguAjB4Lnuhry4Qovon10nMape4DFXNg8Az2JpSvqweYMHYnPSXu+CkoMUDI6edCq5w/ODRVjKlyeAu7EVwGtdvTsZmN00d8GisMYngz0/HnrjTACtcxcsaiVa/p9d8+bMiiPVQxPwUXeTGU2trnGIww1AUQHg7Pb5B7mGKhHhXO1P9rxrr5zdPv89EQLahLuB/XFhZ0e5gsYm9znLEUQkiGc5fzZjKqTRuyCPnv124CZgAbA8nUrmehS6zPODW139exP2aPl1VEYOr1LoAn4N3AbcB6xyybCzeRj4hecH12I55j6JJcSNUlbvAM4CbtdtriivBz6YR3CzxI2c3J8j+H7A5f2bB5wPfNoF+rmMAz7h+UEqnUpurLDg+HDg43lcu48CXwd+CmzIkcj8r8CvPT+4AXukfD624ObQCB2qblXXgtziOuZXuo7Gvq6zvgZbIfyzJhcNRhm9OHrI/0/AsndH6YX2YykN7tP5KNirsVVYUUdsswUZs90rys/e5C7OPhV9zY18HImt5otiFXApcNsIgd/QXmcGSzGw2PODO12gGZDfSGO1ugv4YDqV3JlHL30nsMTzgwewvHOXRCirFuBCzw9+lc97yYuugXHAR9wNMcw2bBHON9Kp5LaQ8wmwwfOD+cBTrvM/UhD4Gixf4I0VVkTnAcdEOG4A+D/gs+lU8qmIdb4HeNTzg8ew/HRXuA7NSPFDr2pt/tKpZLfnB1diI7LnYKPTA1ii8i8D9za5HmghIzTH5dF72k+no2gJihs9SozSsVJd3s7eLYFG8jzw8XQq+bMCG58tbjeQCyLeTKrdzogd4mxltc3zg6+433EF4SuyT3Xt9hJV54KcjO3yEWYrNpL33ajbbg0JBH/hzunVI3Tcm4FzPT+4tVLmAnp+MIXo+TtvBj6ZTiU3FVDnB4C/eH5wW0gAKMUFgb3AnZ4fLGHvnuy7B+uzVgGL1M/IR5sLAMN0A18qNPgbIkP4XMrd1MZirKI6Te5x8fXY/NMw44G3eX6gSp3/NZBwoyGTQg7tw3ZRyCv4yxIgPRhyzEnAyyssOH5FhOOWYSN/m2JoI2T0A8H+dCq5I51K7hxanxuwRzYjvdZjEweHPgIaADa4UYKhr+ew/T+Hvp4ttGcsIrE6imgj93cCPyzRZ+rRTeDvjXQ3cA02XyrMadgerJKfqcAbIhz3K+yxb38R53MD4VOsJmOLIirFGYQne94FfDWdSq5UdapuTdiE7ZF6tT3YUPV3sAzSYBPD52CTP4eOIubKl/WCirooq7B5IlFGbFuxIfXhc4n+hO1LGTZS0YhtH6Otp2rPqwjf47cL6NT8srIFgU97frAQ+O+QQ49wAf0mlVpeZgBhOfh2ANelU8mtMbzfn909caSFZSd7fvCtYoLNOLjUL1ESPv+WaGsHohirKlnGAHDenFkPhR00d8Gi8dijmkH9wHPz5sx6usSfd8BdUBkKz8uF+/kpbjQkkWNU4kHXEBTzaKcRSwNRrIexVZUjWtjZkZndPn+au9EPDwBvXdjZcdXs9vmJPMqoXB4EflLkOc71N72Kkbc824ktWNoT83s3YKPke8pYridEqM+PAr9X01hWP8NW6U0d4ZgJ2MI8nav8nIitwB3JH7FVvWOLbP/7XYDeFRIAvhzbmqvcAyWHEJ4QOwP8OJ1K7ojpPbW1XDkDwCr7vD1Y/rJit0Tqw3IcLSL7UvftrgF+JKb3KsrCzo58ArKBkQK6MqZ2yUcnNuI8Gh2I64ELRzhmHTa6vZb458hmKNPKas8P9iHa4o/70qnklhjbF+0ykr+nXdszUgCYQDs05HsNNGIjgGFeAvwgprdtI3xRz0HY4/xyB4DTCF8ZvQG4X7VJAWDJTb1q+WAQWLR1l8zoCblRd0+9anmPqkjpuUcho/I4xPODsEfbGaB3ND9DmbRhyVjDRiz+EuN7NlM/eQDjrP+7PD94GEvbMOIN2/ODxnI/OqwiLdgmAmEOZ+SnBHGbgD2RerLM5XMo4Y9k09iUJKkBWgUsUh9aCV/52OUaeCm/KNNr9mf0kpbXojbC58CWw5gK+VwHEP7IO41NjRIFgCJSJVoIn2+zGy3YqhQbCJ8uUMv7L49WANhagZ+r2X22chsf4ZhNZRhxVpYABYAiUoTGCL37bpR1v1LsIHwKQgvFz1GuJ2OpzBHTBJWxGCJKPFDqbdl6Ke/COQWAIlIXtANMbqUehYgSsPej0RGp7TZiAKUkGzV6fCBSH7oJH1EaS+lHIqohgBnAkt+W0oQIHfQutF93PvojBBPbgR9j6aBKGew8VgHlE2X0X2lbFAAWbun0E8/F9mEcejNqwLLfXz9z5bK6ewTl+cFEYC62SjMzrLe1OJ1K/lZVVYq0i/AdeVoo/e4Su9zeqZWs2LyjhZgaoX3ergAwL10RAvldwFfSqeRf67B8oqR/OtDzg2a3x2wclAi6ngJA4HVYnrXh7ga+TX3OQWoDZgNHZvneI1jmdZFib35hCzxasfQX91XYqEM9OirCMRso/ZysarYD2BpyzL7AdKJtx1dr1ruOzkjzSqdjSavj2oFGI4pllM8cwG4sB98e94r7uXy9z2WJ6+/XPC7JZiewOkLdOcnzg7jes5HwRQqqr8O4LbmOj3Dos1UwelppnaDnQo4Zi+0WUo+eI3yE1CN8Kz2psQBwF/AZ4G3AO4BZRMtTJaU3gKXz6Hb/7nYBux4V1bF0KtlHtFGNUxl5B4p8jEF56gpxLPCKkGN6qc9RqmKugR6izbV7gwvC680qbBRwJPsCp6s2ZY2lmmL6PeNK9aEjfeB5c2b1A3/SOa4Km4GPYvO5BkcVE5Q/y7yU358I35j+GOBNxLcVlkb48uD5QQPwXqJtyaUAMH8PRLgGXu06Qr+ss7IZrFNhW0a+x/OD76VTyfWqTn/XjC3ciuP3tJTqQ2sVcI1Z2NnRjfZqlOwewh7zvDSkAfqI5wepdCq5VkVWcq8F3h/xXGrXlsKugZWMPMeyzV0Dv0unknWz60U6lez2/OA3wDtDDn0V9hTwmjqqN7sjxFLTY3if/YDJIcfsIaa508oDKFI/VgO/iXDcycC/e36gFXol5PnBQcDlwEEhh2aAX6ZTyd0qtYKugXsiHPdm4ALPD+ptBPvXhD8GbgQu9vzgtBJ8nkop/3WET6M60fODYgfVjolw/W+MEJAqABSRF/Xw+4HbsAUhYe3Cx4BPeX6gVXqlC/7+BzgzwuF/A+5UqRV0DQwAtwDbQg4dC3wOOM89lo/7fCc8PzjM84NJFVZEj0UMkKcB13p+cPIof54BSp+CKZtnCF9BfirRVu/nqhON2BqLsDZ3hZvTrQBQRPLyWyzlUpgW4D+Br3l+MD3GlcG1KlHIaIXnB02eH7wO+D5wXsTfsTidSmoRXuGWEm1+32TgWmBuXItCPD9o9vzgGBdc3gYcXWEBcg/wvQgBMsArgR94fvBBzw9Ga4/lStkKbiXwRMgxhwEXeX7QXOB7nAqcE3JMNzaPNRaaAyhSR9KpZJfnB1/H8nHuH3L4OGwk8HTX0P/c9YRzJm92j8zGYnNZjqd+Er3+E5D0/OAeYAWWJ603Wzm5EaV93Q30XODdwJSI7/MIcKNqclHXwB53DZxO+Ir3A4ArAd/zgxuwHJlb0qlkpLRdblRnIjY/7DXYJginAodgeQkr8RHzvcDtwAURjn0pcD1wrucHC7H55+tyJYp2HclGbJ7lVLLnvh0uUwF1ZpvnB79y524kFwBPen5wQz6jdK5T8GVsM4iRPK4AUESKbeBvAC6NcANKYClJrgA6sEdEj3l+8Bz2SCTjjmlzQd/BWK6w6e6/20J+f63s83kYNqozF1to8wTwlOcHz7sbfcYFw1OwPGozsMdFbXm8xw5sl4pnVIWLthS4DvgC4bkqxwBvcQHjcuB+zw8ewRbhbGXv3LAENnI+CZvHdZg7x0e562FfquCpWzqV7PH84GvYXOBjIvzIOODt2PSFlcByzw+eANayd7pJswuEp7hy8dy/k6uoztwOfAhLlp/LeNdWHuz5wQJg1Ui5Oj0/aHGdgsux1edhgfDNcS7OUwAoUn8jIP2eH1zjArt3RvyxBndTOwjws/TMCx3J2FljxduKPdY7OscIRqHl1A98A7hVNTiWayDj+cE3sJyL74/4Y+OwJNEnuo7LYK7V/iHndgw2h6uZKk6BlE4lV3h+8Dmgk+jbQ44ZEvDGWfcrxQpst7JkSKdhInAZcDZwh+cHv3eB8U5XV/ZxgfBxrmNxmgscwywjvvRcdR8A7sByHjUPq6QNWC49bbEktXwD3Oj5wadcY/X6An9NHA16PewAVGw59bsbz5dj3INV10AqudXzg89gI3ZvzvPHBxP2jqvhIvqpC1S+4sqoXG1EJXUaFrgOwNkR6scr3KsH27e7a0gAOAEbLY46Irwe+Hw6lVwd599Uz4tA7seGXk9zN8DB1z8B70I7nUjt3wD/BrQDd1A7j2JrzR7g68Cl6VRym4oj9msgjSXO/znajnR42QwA3wEuxh7nqkxSyc3AfxBtId2gMdgoqgccwd6pMVHjr83YdJ3YV/7X7Qjg1KuW97iCFannBu0pzw8+DFwCXIiNCMo/KkdwkMZGX76nnH+jeg086/nBhdgczg9hj/FLJVHhZdPv+cGN2DZxSWxeYKkHjhIVViZPe35wkbs2zx7lOOpp4LPAbVEXHuVDaWBEdAPc4BqZ2a5nW6rpD/3YVIxK1wesKWEQuBVLC3M2cL2Cv5JcA+uAT2Mj4g9SmhHx7cCuKiibTDqVvBtbsf4lbJFTqWzHHqFWWpk84+rKpVhmhLjtBG5yZX6LG42NnRaBiMhg/q+fe35wP3AWttXTKdjK3jh74Huw3Rj+CPwCWFIFZdPn+cHlLjh+A7Zd23RspCiusul35bIEWAgsTaeSmodc2vO8B1js+cF92MKQD2CrYMfE3OlZBfwKWIStKq6W8lnj+cEXsETa52FTpY4i3lRPA1gOwhXYriQ/o0K3PHRzSK927dgsLIffkUXUlwy2H/N9WC7Ge9Op5Kh2EBQAisiLGjXgJs8PfoJNYH49lvvqGCxvVxvhaTMGG/I9rjFfjz3KeBj4s7vprYkrm32JymUVsNDzg5uw+TxHAydg+6K+DMvrNgmb4B3lyUqPK5vVWG6/3wC/A56tpnKp0WvgeXdjX4SlfnmrC/oPxSbuF9LpWYONLC7Bdtp41u3MU21lM4ClgQqwVemvBc7AchwejqW6GRuhY5TBRta7gBewUcXHXRk9BDwJbB+Nx54xl0cGWOHK41uuPE7DcqB6rjxahsRaCfe3D64i34FtM7cC+D2WqP/xUnX+8uq9Lp1+4nTgk66RK+TEZLBFFsdl+d5qF0kX0/j9cObKZUtLXQk8PzgbW0U2UGCZtLne1KQs3/8N8CiFPa5PYAlpr3Y39rrn+cHngfPJvr1QAzac/8F0KrlJpfX3MmvG8nUdhm0BdYgLgiYOCwZ7XIO22fVk17rXRmBbLQY2LtHvBFc+h2ATvKdiSbbHDyufbuzx7gY3CrTKtXtbqzEYGNL23YJlU8imF3hfOpX8cRWf4yZ3Tl/mOkVHuevgAGwUeOiITz/2WHezO79PYrkzV7hOT28NXgMJV9cPHtJGHIg9PWgZdq/rch2fTS7wWev+3YwlmM/USHm0uPox2BZMcNdIw5DAd4trCzaUq33MdwTwQOy5d9sofJZDgYuK+PmMG11YWoZzfgrwkVH63YOrkwv1LLCA8H0M68U1rjxy6XM9Utnby+11IxhrgD+oRF5UNv2uId/ibvZSe+e4zwXqq4G73Q2+CRvpGjfsPjo48r0b2wkmUwflk8Hm6m3HRvHqvb4MBrpdVOjj60IDQJFqvzi3EW2fSxGRXDf4XvfaqRKRaqVVwCIiIiIKAEVERESkluX7CHgP8DcKWwkFNk9vCrYyZrhdwPMUnmsrQ/ke7W3EVjn2F/i5m7E5kNmWj6/H5u8Vkm4igU1E1qpCERERKTgAXIEtiS8099UAlkjyw1m+92fgX7HJs4X+/q1lKscFWO6uQsvkYGyT9yOyfP8a4LsUPl+zH1txJSIiIpJ/ADhz5bIeitwTcOn0E7tyfKsbWDtz5bKSZb2f3T5/IpbfrHFYwLRiYWdH5GAynUoOroAqiOcHg0vDs9nmdmoQEak027D8jrnuJX1o0ZVI9QeANeg4bOStFXsUm8AeRZ+HZSEvlYSqoohUocGdY3K1YRmqY7s/EQWAdaYRS2DZMuxrSo8jIhLCbSG4WSUhUn20Cjh3r1VEREREAaCIiIiIKAAUEREREQWAIiIiIqIAUEREREQUAIqIiIiIAkARERERUQAoIiIiIgoARUREREQBoIiIiIhEV3Nbns1un38G8F7Cd/MYAKYBY4Z9vRn4xOz2+e+KECAngB8t7OxYoqokIiIiCgDL53jgo0WWyTvzOH4loABQREREqkYtPgLOVOn7JVQdRUREpBTKMQK4BVgL9A35WiOwoQzBW6XoA9YALdij6aFB4U5VUxEREan2APA64AfDgr0EsAvojvF9ogaTiZh/thCbgQ9g8xGHl8tGVVMRERGp6gBw5splm4BNo/gWdwEXEG0RyDHAXGDskK/3ANcCjxJtEciyYj9wOpXsA1apOoqIiEgp1PW8s9nt808H7gBah3x5F/CuhZ0dKVUPERERqUXKA/iPQbAWY4iIiIgCQBERERFRACgiIiIiCgBFRERERAGgiIiIiCgAFBEREREFgCIiIiKiAFBEREREFACKiIiIiALAUaRk0CIiIlKzmur87+8HdmD7Amdc4LcL6FPVEBERkVr1/yif9LsMlOGkAAAAJXRFWHRkYXRlOmNyZWF0ZQAyMDE4LTExLTIwVDE2OjA4OjQzKzAwOjAwPhw4LgAAACV0RVh0ZGF0ZTptb2RpZnkAMjAxOC0xMS0yMFQxNjowODo0MyswMDowME9BgJIAAAAZdEVYdFNvZnR3YXJlAEFkb2JlIEltYWdlUmVhZHlxyWU8AAAAAElFTkSuQmCC;clipPath=inset(0% 76.33% 0% 0%);" vertex="1" parent="1">
                    <mxGeometry x="190" y="300" width="80.16" height="70" as="geometry"/>
                </mxCell>
                <mxCell id="46" value="tableau" style="text;strokeColor=none;align=center;fillColor=none;html=1;verticalAlign=middle;whiteSpace=wrap;rounded=0;" vertex="1" parent="1">
                    <mxGeometry x="195" y="370" width="60" height="30" as="geometry"/>
                </mxCell>
            </root>
        </mxGraphModel>
    </diagram>
</mxfile>